<svg width="78" height="80" viewBox="0 0 78 80" fill="none" xmlns="http://www.w3.org/2000/svg">
<path d="M43.2698 57.3699C43.5388 56.5766 43.2971 56.9766 49.9346 49.3077C51.0932 47.9693 53.1174 47.8233 54.4559 48.9818C55.4805 49.8687 55.8035 51.2621 55.3802 52.4677C54.7768 52.5774 55.9798 52.1294 43.2698 57.3699Z" fill="#E59770"/>
<path d="M46.7796 52.9531C43.6181 56.6059 43.531 56.6001 43.2698 57.3699C55.9763 52.1309 54.7759 52.5776 55.3802 52.4678C55.7188 51.5034 55.5787 50.4193 54.9849 49.5699L46.7796 52.9531Z" fill="#DD855F"/>
<path d="M25.0088 66.741C23.7932 66.9047 22.6499 67.4169 21.7215 68.2185L20.2595 69.4808L11.5923 59.4432C13.7382 57.6052 16.0417 55.9575 18.4907 54.548C21.2295 52.9718 22.3304 52.8099 28.1671 52.1844L28.1674 52.1846C30.0777 52.0168 31.029 52.4322 38.8768 54.6583C41.7085 55.4613 41.0843 58.1924 41.0843 58.1924L53.7971 52.9508C54.0465 52.8269 56.998 51.1813 58.6312 53.8449C60.0626 56.3575 57.639 58.1764 57.1523 58.4935L40.9552 67.765C40.9552 67.765 40.9543 67.7655 40.9532 67.7663C38.5541 69.328 36.053 69.011 34.9521 68.755C27.6593 66.6864 27.4181 66.4164 25.0088 66.741Z" fill="#F0A479"/>
<path d="M14.3206 57.2775C13.3856 57.9657 12.4748 58.6875 11.5923 59.4434L20.2596 69.4811L21.7217 68.2186C22.1193 67.8753 22.5581 67.5886 23.0234 67.3561L14.3206 57.2775Z" fill="#E59770"/>
<path d="M47.61 40.5706C47.6151 40.4548 47.6187 40.3385 47.6187 40.2213C47.6187 39.4566 47.5218 38.7145 47.3398 38.0066C46.3564 34.1841 42.8865 31.3596 38.7572 31.3596C30.4864 31.3596 26.775 41.7049 33.0478 46.9965C33.0479 46.9966 33.0481 46.9966 33.0483 46.9968C34.589 48.2965 36.5904 49.0829 38.7572 49.0829C40.9628 49.0829 43.1715 48.162 44.4665 46.9965C46.3106 45.4412 47.51 43.1474 47.61 40.5706Z" fill="#FFC850"/>
<path d="M36.2673 46.9966C30.5692 42.1899 33.0131 32.8569 40.367 31.5071C39.8448 31.4113 39.3071 31.3597 38.7573 31.3597C30.4859 31.3597 26.7768 41.7066 33.0479 46.9966C34.7513 48.335 36.5318 49.083 38.7573 49.083C39.3531 49.083 39.8621 49.0263 40.367 48.9344C38.7095 48.6333 37.5543 48.008 36.2673 46.9966Z" fill="#F9B938"/>
<path d="M43.553 58.3263C43.587 58.1763 43.6903 57.7002 43.7783 57.0763L41.0889 58.1852C40.9208 58.6152 40.4934 59.2493 39.4527 59.1052C36.877 58.7507 30.7441 57.9308 30.6825 57.9225C30.021 57.8341 29.4142 58.2983 29.326 58.9593C29.2377 59.62 29.7017 60.2275 30.3627 60.3158C39.6061 61.5419 39.2083 61.5422 39.7638 61.5422C42.0753 61.5421 43.2869 59.6955 43.553 58.3263Z" fill="#E59770"/>
<path d="M21.5234 70.6966L10.636 58.0879C10.1804 57.5602 9.38306 57.5018 8.8554 57.9574L0.409938 65.2497C-0.0874053 65.6793 -0.139593 66.4318 0.293844 66.9258L11.4245 79.6104C11.8196 80.0607 12.511 80.138 12.9687 79.7511C12.9721 79.7482 12.9756 79.7452 12.979 79.7424L21.3927 72.4774C21.9207 72.0215 21.9791 71.2243 21.5234 70.6966Z" fill="#FFC850"/>
<path d="M2.07362 63.8135L0.410182 65.2497C-0.0871611 65.6793 -0.139349 66.4318 0.294089 66.9258L11.4247 79.6103C11.8199 80.0606 12.5114 80.138 12.9689 79.7511C12.9724 79.7481 12.9758 79.7452 12.9792 79.7424L14.7269 78.2333L2.07362 63.8135Z" fill="#F9B938"/>
<path d="M38.3958 45.4096C36.6145 45.3654 35.2747 44.4084 35.2747 43.584C35.2747 43.1718 35.6426 42.5534 36.0992 42.5534C36.6587 42.5534 37.1001 43.5102 38.3958 43.6576V40.7277C37.0559 40.2273 35.5397 39.6531 35.5397 37.7685C35.5397 35.8988 36.9236 35.0891 38.3958 34.8977V34.4856C38.3958 34.2941 38.6165 34.1174 38.8964 34.1174C39.1467 34.1174 39.3968 34.2941 39.3968 34.4856V34.8684C40.3537 34.8979 41.9143 35.1776 41.9143 36.0315C41.9143 36.3701 41.6789 37.0473 41.134 37.0473C40.7218 37.0473 40.3832 36.5762 39.3968 36.5026V39.0937C40.707 39.5795 42.1793 40.242 42.1793 42.2443C42.1793 44.0551 41.0456 45.1004 39.3968 45.3654V45.8218C39.3968 46.0132 39.1465 46.1899 38.8964 46.1899C38.6165 46.1899 38.3958 46.0134 38.3958 45.8218V45.4096ZM38.5136 38.7699V36.547C37.7776 36.6648 37.3359 37.0181 37.3359 37.5774C37.3358 38.2252 37.8364 38.5049 38.5136 38.7699ZM39.2792 41.0813V43.6431C39.9268 43.5106 40.3832 43.1277 40.3832 42.4359C40.3832 41.7143 39.9122 41.361 39.2792 41.0813Z" fill="#E4EAF8"/>
<path d="M23.3476 26.9758L33.8882 22.6299C33.759 23.0108 33.5573 23.3739 33.2778 23.6969L27.2234 30.6921C26.0648 32.0305 24.0406 32.1764 22.7022 31.018C21.6775 30.1311 21.3545 28.7377 21.7778 27.5321C22.5986 27.3827 23.2368 27.031 23.3476 26.9758Z" fill="#E59770"/>
<path d="M23.3476 29.833L30.53 26.8716L33.2778 23.6969C33.5573 23.3739 33.759 23.0108 33.8883 22.6299L23.3476 26.9758C23.2369 27.031 22.5986 27.3827 21.7778 27.5321C21.4537 28.4549 21.5686 29.4871 22.0992 30.3186C22.7611 30.15 23.2519 29.8807 23.3476 29.833Z" fill="#DD855F"/>
<path d="M52.1491 13.2589C53.3647 13.0951 54.508 12.5829 55.4365 11.7814L56.8985 10.519L65.5657 20.5567C63.4197 22.3947 61.1163 24.0423 58.6672 25.4518C55.9285 27.0281 54.8276 27.19 48.9908 27.8154L48.9905 27.8153C47.0802 27.9831 46.129 27.5676 38.2812 25.3415C35.4494 24.5386 36.0737 21.8075 36.0737 21.8075L23.3609 27.049C23.1115 27.1729 20.1599 28.8186 18.5268 26.155C17.0954 23.6423 19.519 21.8234 20.0057 21.5064L36.2027 12.2348C36.2027 12.2348 36.2037 12.2344 36.2048 12.2336C38.6038 10.6719 41.1049 10.9889 42.2059 11.2448L48.4943 13.0286C49.9696 13.4469 50.9527 13.42 52.1491 13.2589Z" fill="#F0A479"/>
<path d="M51.7136 13.6843C53.1888 14.1025 54.1719 14.0757 55.3685 13.9146C56.5588 13.7543 57.6783 13.258 58.5961 12.4849L56.8985 10.5188L55.4364 11.7811C54.508 12.5829 53.3649 13.0949 52.1491 13.2586C51.6077 13.3316 51.1097 13.3765 50.5903 13.3655L51.7136 13.6843Z" fill="#E59770"/>
<path d="M21.7461 26.8107C20.3147 24.2981 22.7383 22.4792 23.225 22.1621L39.422 12.8906C39.422 12.8906 39.4229 12.8901 39.424 12.8893C40.9681 11.8842 42.5539 11.6576 43.782 11.6918L42.2059 11.2448C41.105 10.9889 38.6039 10.6718 36.2048 12.2336C36.2037 12.2342 36.2028 12.2348 36.2028 12.2348L20.0058 21.5064C19.5191 21.8234 17.0953 23.6423 18.5269 26.1549C19.5878 27.8854 21.2047 27.7968 22.2761 27.4885C22.0889 27.3017 21.9106 27.079 21.7461 26.8107Z" fill="#E59770"/>
<path d="M33.6047 21.6736C33.5706 21.8236 33.4674 22.2997 33.3794 22.9236L36.0688 21.8147C36.2369 21.3847 36.6642 20.7506 37.705 20.8947C40.2806 21.2492 46.4136 22.069 46.4752 22.0773C47.1367 22.1658 47.7434 21.7015 47.8317 21.0406C47.92 20.3798 47.4559 19.7723 46.795 19.684C46.7334 19.6759 40.605 18.8565 38.0342 18.5028C37.8119 18.4722 37.5988 18.4576 37.3939 18.4576C35.0824 18.4578 33.8708 20.3044 33.6047 21.6736Z" fill="#E59770"/>
<path d="M55.6347 9.30323L66.522 21.912C66.9776 22.4396 67.7748 22.4981 68.3026 22.0424L76.7481 14.7501C77.2454 14.3206 77.2976 13.5681 76.8642 13.074L65.7332 0.389639C65.3381 -0.0606735 64.6465 -0.138017 64.189 0.248857C64.1856 0.251826 64.1822 0.254795 64.1787 0.257764L55.765 7.52276C55.2373 7.97838 55.1789 8.77557 55.6347 9.30323Z" fill="#00C3FF"/>
<path d="M57.4577 6.06104L55.765 7.5226C55.2373 7.97822 55.1789 8.77541 55.6345 9.30322L66.5219 21.912C66.9775 22.4396 67.7747 22.4981 68.3025 22.0424L69.9953 20.5807L57.4577 6.06104Z" fill="#06B0F2"/>
</svg>
