<svg width="80" height="77" viewBox="0 0 80 77" fill="none" xmlns="http://www.w3.org/2000/svg">
<path d="M76.1555 73.6507H16.6317C10.2322 73.6507 5.04443 68.463 5.04443 62.0634V59.8412C5.04443 53.4417 10.2322 48.2539 16.6317 48.2539H76.1555V73.6507Z" fill="#FFEBB7"/>
<path d="M13.9337 50.7937H7.58447V71.1112H13.9337V50.7937Z" fill="#5C546A"/>
<path d="M70.1239 44.4445H2.50488V26.6667H70.1239C72.0525 26.6667 73.616 28.2302 73.616 30.1588V40.9525C73.616 42.881 72.0525 44.4445 70.1239 44.4445Z" fill="#FFEBB7"/>
<path d="M76.1555 3.80957H11.3936V22.8572H76.1555V3.80957Z" fill="#FFEBB7"/>
<path d="M76.1903 76.1905H17.7776C9.37542 76.1905 2.53955 69.3553 2.53955 60.9525C2.53955 52.5496 9.37542 45.7144 17.7776 45.7144H76.1903C77.5929 45.7144 78.73 46.8515 78.73 48.254C78.73 49.6566 77.5929 50.7937 76.1903 50.7937H17.7776C12.1762 50.7937 7.61892 55.351 7.61892 60.9525C7.61892 66.5539 12.1762 71.1112 17.7776 71.1112H76.1903C77.5929 71.1112 78.73 72.2483 78.73 73.6509C78.73 75.0534 77.5929 76.1905 76.1903 76.1905Z" fill="#00C37A"/>
<path d="M68.5714 45.7142H1.26984C0.567936 45.7142 0 45.1463 0 44.4443C0 43.7424 0.567936 43.1745 1.26984 43.1745H68.5714C70.6721 43.1745 72.381 41.4656 72.381 39.365V31.7459C72.381 29.6453 70.6721 27.9364 68.5714 27.9364H1.26984C0.567936 27.9364 0 27.3685 0 26.6666C0 25.9647 0.567936 25.3967 1.26984 25.3967H68.5714C72.0722 25.3967 74.9206 28.2451 74.9206 31.7459V39.365C74.9206 42.8658 72.0722 45.7142 68.5714 45.7142Z" fill="#009BCA"/>
<path d="M76.1557 10.1588H17.743C17.0417 10.1588 16.4731 9.59025 16.4731 8.88898C16.4731 8.18771 17.0417 7.61914 17.743 7.61914H76.1557V10.1588Z" fill="#E6BE94"/>
<path d="M76.1557 15.2382H17.743C17.0417 15.2382 16.4731 14.6696 16.4731 13.9683C16.4731 13.2671 17.0417 12.6985 17.743 12.6985H76.1557V15.2382Z" fill="#E6BE94"/>
<path d="M76.1557 20.3175H17.743C17.0417 20.3175 16.4731 19.7489 16.4731 19.0477C16.4731 18.3464 17.0417 17.7778 17.743 17.7778H76.1557V20.3175Z" fill="#E6BE94"/>
<path d="M2.50488 30.4761H68.5366C69.2379 30.4761 69.8065 31.0446 69.8065 31.7459C69.8065 32.4472 69.2379 33.0158 68.5366 33.0158H2.50488C2.50488 33.0158 2.50488 30.4761 2.50488 30.4761Z" fill="#E6BE94"/>
<path d="M2.50488 35.5557H68.5366C69.2379 35.5557 69.8065 36.1242 69.8065 36.8255C69.8065 37.5268 69.2379 38.0953 68.5366 38.0953H2.50488C2.50488 38.0953 2.50488 35.5557 2.50488 35.5557Z" fill="#E6BE94"/>
<path d="M2.50488 40.635H68.5366C69.2379 40.635 69.8065 41.2036 69.8065 41.9049C69.8065 42.6061 69.2379 43.1747 68.5366 43.1747H2.50488C2.50488 43.1747 2.50488 40.635 2.50488 40.635Z" fill="#E6BE94"/>
<path d="M77.4601 25.3968H16.5077C12.3063 25.3968 8.88867 21.9792 8.88867 17.7778V7.61905C8.88867 3.41762 12.3063 0 16.5077 0H77.4601C78.8626 0 79.9998 1.13714 79.9998 2.53968C79.9998 3.94222 78.8626 5.07937 77.4601 5.07937H16.5077C15.1071 5.07937 13.968 6.21841 13.968 7.61905V17.7778C13.968 19.1778 15.1071 20.3175 16.5077 20.3175H77.4601C78.8626 20.3175 79.9998 21.4546 79.9998 22.8571C79.9998 24.2597 78.8626 25.3968 77.4601 25.3968Z" fill="#FF4F19"/>
<path d="M17.743 68.5715C17.0411 68.5715 16.4731 69.1395 16.4731 69.8414C16.4731 70.5433 17.0411 71.1112 17.743 71.1112H76.1557V68.5715H17.743Z" fill="#E6BE94"/>
<path d="M17.743 63.4919C17.0411 63.4919 16.4731 64.0599 16.4731 64.7618C16.4731 65.4637 17.0411 66.0316 17.743 66.0316H76.1557V63.4919H17.743Z" fill="#E6BE94"/>
<path d="M17.743 58.4126C17.0411 58.4126 16.4731 58.9805 16.4731 59.6824C16.4731 60.3843 17.0411 60.9523 17.743 60.9523H76.1557V58.4126H17.743Z" fill="#E6BE94"/>
<path d="M17.743 53.3333C17.0411 53.3333 16.4731 53.9012 16.4731 54.6031C16.4731 55.305 17.0411 55.8729 17.743 55.8729H76.1557V53.3333H17.743Z" fill="#E6BE94"/>
</svg>
