<svg width="77" height="80" viewBox="0 0 77 80" fill="none" xmlns="http://www.w3.org/2000/svg">
<path d="M31.562 6.48267H25.7377C25.5009 6.48267 25.3088 6.6747 25.3088 6.91157V11.1506C25.3088 14.4975 28.0473 17.2359 31.3942 17.2359H37.2184C37.4552 17.2359 37.6473 17.0439 37.6473 16.807V12.568C37.6473 9.2211 34.9088 6.48267 31.562 6.48267Z" fill="#7CE854"/>
<path d="M47.0689 5.55734V0.428906C47.0689 0.192031 46.8769 0 46.64 0H42.3953C39.7839 0 37.6472 2.13672 37.6472 4.74813V9.87672C37.6472 10.1136 37.8392 10.3056 38.0761 10.3056H42.3208C44.9322 10.3055 47.0689 8.16891 47.0689 5.55734Z" fill="#7CE854"/>
<path d="M28.5354 11.1506V6.91157C28.5354 6.6747 28.7274 6.48267 28.9643 6.48267H25.7377C25.5009 6.48267 25.3088 6.6747 25.3088 6.91157V11.1506C25.3088 14.4975 28.0473 17.2359 31.3942 17.2359H34.6207C31.2738 17.2358 28.5354 14.4975 28.5354 11.1506Z" fill="#6FD844"/>
<path d="M40.8738 9.87672V4.74813C40.8738 2.13672 43.0105 0 45.6219 0H42.3953C39.7839 0 37.6472 2.13672 37.6472 4.74813V9.87672C37.6472 10.1136 37.8392 10.3056 38.076 10.3056H41.3025C41.0658 10.3055 40.8738 10.1136 40.8738 9.87672Z" fill="#6FD844"/>
<path d="M37.5835 30.3345C36.9153 30.3345 36.3735 29.7928 36.3735 29.1245V9.80766C36.3735 9.13937 36.9153 8.59766 37.5835 8.59766C38.2518 8.59766 38.7935 9.13937 38.7935 9.80766V29.1245C38.7935 29.7928 38.2518 30.3345 37.5835 30.3345Z" fill="#9BF57D"/>
<path d="M38.7097 61.7992C40.4683 51.7151 39.7674 52.5334 46.0105 43.5148H46.011C47.5347 41.4013 48.8163 40.7651 57.8333 34.8363C56.0482 33.3287 53.7424 32.4182 51.2229 32.4182C50.7502 32.4182 50.2858 32.4529 49.8302 32.5149C47.2401 28.481 42.718 25.806 37.5683 25.806C32.4185 25.806 27.8965 28.481 25.3065 32.5149C24.8507 32.4531 24.3865 32.4182 23.9137 32.4182C21.6147 32.4182 19.4927 33.1749 17.7827 34.4527C17.8419 34.4888 17.9007 34.5229 17.9607 34.5624C27.3612 40.7501 28.6526 41.3688 30.1999 43.5149H30.2004C36.4435 52.5335 35.7424 51.7152 37.501 61.7993H38.7097V61.7992Z" fill="#AD7B64"/>
<path d="M39.9413 54.8328C38.9358 49.1038 38.2882 47.9799 33.3447 40.7827C33.3235 40.7517 33.3018 40.7214 33.2797 40.6913C31.7343 38.5436 30.3777 37.6499 24.7813 33.9642C24.1138 33.5246 23.3796 33.0411 22.5707 32.5066C20.7907 32.7396 19.1541 33.428 17.7827 34.4527C17.8419 34.4888 17.9007 34.5228 17.9607 34.5624C27.3612 40.75 28.6526 41.3688 30.1999 43.5149H30.2004C36.4435 52.5335 35.7424 51.7152 37.501 61.7992H38.7101C39.2679 58.6005 39.5782 56.4996 39.9413 54.8328Z" fill="#966653"/>
<path d="M72.8286 14.0046C68.8458 13.3475 67.9629 17.656 67.8736 18.0072L62.266 34.9933C62.266 34.9933 60.1227 32.0546 56.9472 34.1616C48.146 40.0004 46.9368 40.5843 45.488 42.6093H45.4876C39.5688 51.2266 40.3166 50.325 38.5891 60.2261H55.7222C57.3369 57.7005 57.9299 56.3157 60.3633 54.701L67.4158 50.0224C68.5955 49.1554 71.0169 46.9607 71.5152 43.268C71.5155 43.2663 71.5158 43.265 71.5157 43.2638L76.1247 19.4171C76.2258 18.6677 76.4936 14.7321 72.8286 14.0046Z" fill="#F0A479"/>
<path d="M48.7147 42.6093C50.1635 40.5843 51.3727 40.0004 60.174 34.1616C60.4007 34.0112 60.6196 33.8945 60.831 33.8054C59.8966 33.3218 58.5546 33.0952 56.9472 34.1616C48.146 40.0004 46.9368 40.5843 45.488 42.6093H45.4876C39.5688 51.2267 40.3166 50.3251 38.5891 60.2262H41.8157C43.5432 50.3251 42.7954 51.2268 48.7141 42.6093H48.7147Z" fill="#E59770"/>
<path d="M65.0346 36.349L71.1002 18.007C71.1681 17.7398 71.6971 15.1842 73.6991 14.2651C73.4364 14.157 73.1483 14.0679 72.8285 14.0043C68.8456 13.3473 67.9628 17.6557 67.8735 18.007L62.6841 33.7265C64.2296 34.2984 65.0346 36.349 65.0346 36.349Z" fill="#E59770"/>
<path d="M3.34421 14.0046C7.32702 13.3475 8.20999 17.656 8.29921 18.0072L13.9067 34.9933C13.9067 34.9933 16.05 32.0546 19.2255 34.1616C28.0267 40.0004 29.2359 40.5843 30.6847 42.6093H30.6851C36.6039 51.2266 35.8561 50.325 37.5836 60.2261H20.4503C18.8356 57.7005 18.2426 56.3157 15.8092 54.701L8.75671 50.0225C7.57702 49.1555 5.15562 46.9608 4.65734 43.2682C4.65702 43.2664 4.65671 43.2652 4.65687 43.264L0.0478043 19.4171C-0.0531332 18.6677 -0.320946 14.7321 3.34421 14.0046Z" fill="#F0A479"/>
<path d="M19.1999 54.701L12.1474 50.0225C10.9677 49.1555 8.54633 46.9608 8.04805 43.2681C8.04774 43.2664 8.04743 43.2652 8.04758 43.2639L3.43852 19.417C3.34727 18.7402 3.12086 15.4638 5.7793 14.3003C5.13618 13.9856 4.33649 13.8408 3.3443 14.0045C-0.3207 14.7319 -0.0528878 18.6677 0.0480497 19.4169L4.65711 43.2636C4.65696 43.2649 4.65727 43.2661 4.65758 43.2678C5.15602 46.9605 7.57727 49.1552 8.75696 50.0222L15.8096 54.7008C18.2429 56.3155 18.836 57.7003 20.4507 60.226H23.8412C22.2263 57.7006 21.6332 56.3156 19.1999 54.701Z" fill="#E59770"/>
<path d="M13.9093 34.9899C13.5528 35.7778 13.242 36.9881 14.1534 37.7967C16.3909 39.7814 22.6362 45.2072 22.699 45.2617C23.2035 45.7 23.2571 46.4644 22.819 46.9688C22.3804 47.4735 21.616 47.5266 21.112 47.0886C21.049 47.0339 14.7943 41.5999 12.5474 39.6069C10.124 37.457 11.3514 34.252 12.3542 32.8316L12.9081 31.9681L13.9067 34.9933C13.9068 34.9933 13.9087 34.9908 13.9093 34.9899Z" fill="#E59770"/>
<path d="M62.2638 34.9899C62.6204 35.7778 62.9311 36.9881 62.0197 37.7967C59.7822 39.7814 53.5369 45.2072 53.4741 45.2617C52.9696 45.7 52.916 46.4644 53.3541 46.9688C53.7927 47.4735 54.5571 47.5266 55.0611 47.0886C55.1241 47.0339 61.3788 41.5999 63.6257 39.6069C66.0491 37.457 64.8218 34.252 63.819 32.8316L63.2652 31.9681L62.2664 34.9933C62.2664 34.9933 62.2644 34.9908 62.2638 34.9899Z" fill="#E59770"/>
<path d="M38.0864 66.8975V78.4023C38.0864 79.2846 38.8017 80 39.6841 80H60.1588C60.9897 80 61.6633 79.3264 61.6633 78.4953C61.6633 64.4153 61.6633 80.6803 61.6633 66.8975H38.0864Z" fill="#00C3FF"/>
<path d="M38.0864 66.8975V78.4023C38.0864 79.2846 37.3711 80 36.4887 80H16.0141C15.1831 80 14.5095 79.3264 14.5095 78.4953C14.5095 76.1561 14.5095 69.2292 14.5095 66.8975H38.0864Z" fill="#00C3FF"/>
<path d="M41.3596 78.4023V66.8975H38.0864V78.4023C38.0864 79.2846 38.8017 80 39.6841 80H42.9572C42.0749 80 41.3596 79.2846 41.3596 78.4023Z" fill="#00AAF0"/>
<path d="M17.7826 78.4953C17.7826 76.1561 17.7826 69.2292 17.7826 66.8975H14.5095C14.5095 69.2276 14.5095 76.1579 14.5095 78.4953C14.5095 79.3262 15.1831 80 16.0141 80H19.2872C18.4562 80 17.7826 79.3264 17.7826 78.4953Z" fill="#00AAF0"/>
<path d="M61.6633 67.3814V61.1874C61.6624 60.4502 61.0625 59.8649 60.3256 59.8655H39.4169C38.6803 59.8666 38.0856 60.4755 38.0864 61.2131V67.3813L61.6633 67.3814Z" fill="#E4EAF8"/>
<path d="M14.5095 67.3815V61.1875C14.5105 60.4503 15.1103 59.865 15.8472 59.8656H36.7561C37.4926 59.8667 38.0873 60.4756 38.0866 61.2133V67.3814L14.5095 67.3815Z" fill="#E4EAF8"/>
<path d="M42.69 59.866H39.4169C38.6803 59.8671 38.0856 60.476 38.0864 61.2136V67.3818H41.3596V61.2136C41.3588 60.476 41.9535 59.8671 42.69 59.866Z" fill="#D8DCE5"/>
<path d="M19.1203 59.8658H15.8472C15.1103 59.8652 14.5105 60.4504 14.5095 61.1877V67.3818H17.7826V61.1876C17.7836 60.4504 18.3834 59.8651 19.1203 59.8658Z" fill="#D8DCE5"/>
</svg>
