<svg width="80" height="80" viewBox="0 0 80 80" fill="none" xmlns="http://www.w3.org/2000/svg">
<path d="M77.017 64.378L64.3784 77.0166L59.2378 71.8744C58.9752 71.6135 58.6963 71.3752 58.4009 71.1599C57.06 70.1729 55.4073 69.6721 53.722 69.7633C49.6287 69.9852 42.7931 70.4746 39.9741 71.3704C39.3558 71.5677 38.3247 69.9152 38.3247 69.9152C37.8402 68.2152 38.5775 66.4027 40.1111 65.5251L47.1848 62.6602L27.7044 43.1796C26.6897 42.1649 26.6897 40.5204 27.7044 39.504L27.8984 39.3099C28.9131 38.2952 30.5577 38.2952 31.5723 39.3099L32.2362 39.9738C31.2444 38.9819 31.2444 37.3733 32.2362 36.3815L32.5136 36.1041C33.5055 35.1122 35.1141 35.1138 36.1059 36.1057L36.6297 36.6294C35.6558 35.6555 35.6558 34.0763 36.6297 33.1022L36.9723 32.7596C37.9462 31.7857 39.5255 31.7857 40.4995 32.7596L41.5664 33.8265C40.63 32.8916 40.63 31.3729 41.5664 30.438L42.0461 29.9583C42.5469 29.4558 43.2158 29.2243 43.8717 29.2601C44.4411 29.291 45.0006 29.5244 45.4347 29.9583L68.297 52.8196C69.2367 53.7593 69.8045 55.0072 69.8975 56.3337C69.9203 56.6551 69.9986 56.9651 70.1308 57.2521C70.2612 57.5408 70.4441 57.8052 70.6708 58.0319L77.017 64.378Z" fill="#D8AD8F"/>
<path d="M53.1898 43.7395C53.1914 45.0348 52.6858 46.2518 51.7705 47.1671L41.7308 57.2068L27.7039 43.18C26.6892 42.1653 26.6892 40.5207 27.7039 39.5043L27.8979 39.3103C28.9126 38.2956 30.5572 38.2956 31.5719 39.3103L32.2358 39.9742C31.2439 38.9823 31.2439 37.3737 32.2358 36.3818L32.5131 36.1045C33.505 35.1126 35.1136 35.1142 36.1055 36.1061L36.6292 36.6298C35.6553 35.6559 35.6553 34.0767 36.6292 33.1026L36.9719 32.76C37.9458 31.7861 39.525 31.7861 40.499 32.76L41.5659 33.8268C40.6295 32.892 40.6295 31.3732 41.5659 30.4384L42.0456 29.9587C42.5464 29.4562 43.2153 29.2246 43.8712 29.2604C43.8794 29.3371 43.8859 29.4139 43.8892 29.4904C44.4259 29.7351 44.9186 30.0761 45.3494 30.5051L45.6267 30.7825C45.6806 30.8379 45.7361 30.8967 45.7883 30.9554C46.5453 31.7875 46.9726 32.8039 47.0689 33.8431C47.6448 34.0878 48.1734 34.4434 48.6286 34.8986L48.9842 35.2559C49.0136 35.2853 49.043 35.3162 49.0706 35.3456C50.0772 36.4125 50.5242 37.7928 50.4133 39.137C50.7298 39.3343 51.025 39.5676 51.2942 39.8368L51.7722 40.3148C52.6858 41.2287 53.1898 42.4457 53.1898 43.7395Z" fill="#C19476"/>
<path d="M43.1408 32.2522L66.0025 55.1139C66.9424 56.0538 67.5111 57.3016 67.603 58.6277C67.626 58.948 67.7049 59.2585 67.8367 59.5467C67.9671 59.835 68.1496 60.0986 68.3764 60.3255L74.7233 66.6724L77.0171 64.3786L70.6702 58.0317C70.4433 57.8049 70.2608 57.5413 70.1305 57.253C69.9986 56.9649 69.9197 56.6544 69.8967 56.3339C69.8047 55.0078 69.236 53.7599 68.2963 52.8202L45.4345 29.9583C44.4986 29.0224 42.981 29.0224 42.045 29.9583L41.566 30.4374C41.232 30.7713 41.018 31.1792 40.9224 31.6085C41.696 31.436 42.5386 31.6502 43.1408 32.2522Z" fill="#C19476"/>
<path d="M58.4014 71.1591L71.0997 58.4608L77.0173 64.3785L64.3789 77.0169L59.237 71.875C58.9753 71.6138 58.6964 71.3746 58.4014 71.1591Z" fill="#C19476"/>
<path d="M61.2905 74.0036L74.0033 61.2908C74.513 60.7811 75.3394 60.7811 75.8491 61.2908L79.6173 65.0591C80.127 65.5688 80.127 66.3952 79.6173 66.9049L66.9045 79.6177C66.3948 80.1274 65.5684 80.1274 65.0588 79.6177L61.2905 75.8494C60.7808 75.3396 60.7808 74.5133 61.2905 74.0036Z" fill="#2796AF"/>
<path d="M71.8818 63.4124L74.0036 61.2907C74.5132 60.781 75.3396 60.781 75.8493 61.2907L79.6176 65.059C80.1273 65.5687 80.1273 66.3951 79.6176 66.9048L77.4959 69.0265L71.8818 63.4124Z" fill="#0E7889"/>
<path d="M46.9237 55.8851C46.6106 55.8851 46.2975 55.7656 46.0586 55.5268L31.3711 40.8393C30.8932 40.3614 30.8932 39.5868 31.3711 39.1089C31.8489 38.6312 32.6236 38.6312 33.1014 39.1089L47.7889 53.7964C48.2667 54.2743 48.2667 55.0489 47.7889 55.5268C47.5501 55.7656 47.2368 55.8851 46.9237 55.8851Z" fill="#C19476"/>
<path d="M52.1513 53.3744C51.8382 53.3744 51.5251 53.2549 51.2862 53.0162L35.7646 37.4946C35.2868 37.0166 35.2868 36.2421 35.7646 35.7641C36.2424 35.2865 37.0171 35.2865 37.4949 35.7641L53.0165 51.2857C53.4943 51.7637 53.4943 52.5382 53.0165 53.0162C52.7777 53.2549 52.4645 53.3744 52.1513 53.3744Z" fill="#C19476"/>
<path d="M54.6619 48.1469C54.3488 48.1469 54.0356 48.0274 53.7967 47.7887L40.7006 34.6927C40.2228 34.2147 40.2228 33.4402 40.7006 32.9622C41.1785 32.4846 41.9531 32.4846 42.431 32.9622L55.5271 46.0582C56.0049 46.5362 56.0049 47.3107 55.5271 47.7887C55.2881 48.0272 54.975 48.1469 54.6619 48.1469Z" fill="#C19476"/>
<path d="M52.2959 40.4959L52.1067 40.6851L52.1018 40.69C51.0872 41.7047 49.4426 41.7047 48.4279 40.69L47.764 40.0259C48.7559 41.0178 48.7559 42.6264 47.764 43.6182L47.4867 43.8956C46.4948 44.8875 44.8862 44.8859 43.8943 43.894L43.3706 43.3703C44.3445 44.3442 44.3445 45.9234 43.3706 46.8975L43.0279 47.2401C42.054 48.214 40.4748 48.214 39.5007 47.2401L38.4339 46.1732C39.3703 47.1081 39.3703 48.6268 38.4339 49.5617L37.9542 50.0414C37.0193 50.9778 35.5006 50.9778 34.5657 50.0414L22.7934 38.269L11.7031 27.1803C10.7634 26.2406 10.1956 24.9926 10.1026 23.6662C10.0798 23.3448 10.0015 23.0348 9.86934 22.7478C9.73887 22.459 9.55606 22.1947 9.32934 21.9679L2.9834 15.622L15.622 2.9834L20.7626 8.12559C21.0253 8.38668 21.3042 8.62481 21.5995 8.84012C22.9406 9.82715 24.5931 10.3279 26.2784 10.2367C30.3717 10.0148 37.2073 9.52543 40.0264 8.62965C40.6447 8.43231 41.6757 10.0848 41.6757 10.0848C42.1603 11.7848 41.4229 13.5971 39.8893 14.475L32.8156 17.3396L40.2157 24.7398L43.6482 28.1723L52.2964 36.8204C53.3106 37.8353 53.3106 39.4797 52.2959 40.4959Z" fill="#F9E8D4"/>
<path d="M52.1067 40.6852L52.1019 40.69C51.0872 41.7047 49.4427 41.7047 48.428 40.69L47.7641 40.0259C48.756 41.0178 48.756 42.6264 47.7641 43.6183L47.4867 43.8956C46.4949 44.8875 44.8863 44.8859 43.8944 43.8941L43.3706 43.3703C44.3446 44.3442 44.3446 45.9234 43.3706 46.8975L43.028 47.2402C42.0541 48.2141 40.4749 48.2141 39.5008 47.2402L38.4339 46.1733C39.3703 47.1081 39.3703 48.6269 38.4339 49.5617L37.9542 50.0414C37.0194 50.9778 35.5006 50.9778 34.5658 50.0414L22.7935 38.2691L35.0894 25.9731C36.0438 25.0203 37.3097 24.495 38.6574 24.495C39.1941 24.495 39.7178 24.5783 40.2153 24.7397C40.9641 24.9811 41.651 25.3987 42.2252 25.9714L42.421 26.1687C42.478 26.2259 42.5646 26.3139 42.6575 26.4216C43.1144 26.9469 43.4455 27.5439 43.6478 28.172C43.7881 28.6011 43.8681 29.0448 43.8892 29.4902C44.426 29.7348 44.9186 30.0758 45.3494 30.5048L45.6267 30.7822C45.6806 30.8377 45.7361 30.8964 45.7883 30.9552C46.5453 31.7872 46.9727 32.8036 47.0689 33.8428C47.6449 34.0875 48.1735 34.4431 48.6286 34.8983L48.9842 35.2556C49.0136 35.285 49.043 35.3159 49.0706 35.3453C50.0772 36.4122 50.5242 37.7925 50.4133 39.1367C50.7299 39.3341 51.025 39.5673 51.2942 39.8366L51.7722 40.3145C51.8914 40.4339 52.0024 40.5562 52.1067 40.6852Z" fill="#EFCDB1"/>
<path d="M36.859 47.7478L13.9974 24.8861C13.0576 23.9462 12.4888 22.6984 12.397 21.3723C12.374 21.052 12.2951 20.7415 12.1632 20.4533C12.0329 20.165 11.8504 19.9014 11.6235 19.6745L5.27666 13.3276L2.98291 15.6214L9.32978 21.9683C9.55666 22.1951 9.73916 22.4587 9.86947 22.747C10.0013 23.0351 10.0803 23.3456 10.1032 23.6661C10.1953 24.9922 10.764 26.2401 11.7037 27.1798L34.5654 50.0415C35.5013 50.9775 37.019 50.9775 37.9549 50.0415L38.434 49.5625C38.7679 49.2286 38.982 48.8206 39.0776 48.3914C38.3038 48.5639 37.4612 48.3498 36.859 47.7478Z" fill="#EFCDB1"/>
<path d="M21.5988 8.84085L8.90057 21.5391L2.98291 15.6215L15.6213 2.98303L20.7632 8.12491C21.0248 8.38616 21.3038 8.62522 21.5988 8.84085Z" fill="#EFCDB1"/>
<path d="M18.7103 5.99617L5.99746 18.709C5.48777 19.2187 4.66137 19.2187 4.15168 18.709L0.383242 14.941C-0.126445 14.4313 -0.126445 13.6049 0.383242 13.0952L13.0962 0.382266C13.6059 -0.127422 14.4323 -0.127422 14.942 0.382266L18.7103 4.15055C19.22 4.66023 19.22 5.48649 18.7103 5.99617Z" fill="#FB4239"/>
<path d="M8.11805 16.5876L5.99617 18.7093C5.48649 19.219 4.66008 19.219 4.15039 18.7093L0.382266 14.941C-0.127422 14.4313 -0.127422 13.6049 0.382266 13.0952L2.50398 10.9735L8.11805 16.5876Z" fill="#C4000A"/>
<path d="M47.764 41.2495C47.4509 41.2495 47.1378 41.13 46.8989 40.8912L32.2114 26.2037C31.7336 25.7257 31.7336 24.9512 32.2114 24.4732C32.6892 23.9956 33.4639 23.9956 33.9417 24.4732L48.6292 39.1607C49.107 39.6387 49.107 40.4132 48.6292 40.8912C48.3901 41.13 48.077 41.2495 47.764 41.2495Z" fill="#EFCDB1"/>
<path d="M43.3701 44.594C43.057 44.594 42.7438 44.4745 42.5049 44.2358L26.9834 28.7142C26.5055 28.2362 26.5055 27.4617 26.9834 26.9837C27.4612 26.5061 28.2359 26.5061 28.7137 26.9837L44.2352 42.5053C44.7131 42.9833 44.7131 43.7578 44.2352 44.2358C43.9963 44.4745 43.6832 44.594 43.3701 44.594Z" fill="#EFCDB1"/>
<path d="M38.4344 47.3961C38.1212 47.3961 37.8081 47.2765 37.5692 47.0378L24.4731 33.9419C23.9953 33.4639 23.9953 32.6894 24.4731 32.2114C24.9509 31.7337 25.7256 31.7337 26.2034 32.2114L39.2995 45.3073C39.7773 45.7853 39.7773 46.5598 39.2995 47.0378C39.0605 47.2769 38.7473 47.3961 38.4344 47.3961Z" fill="#EFCDB1"/>
<path d="M71.1601 21.5993C70.173 22.9404 69.6722 24.5929 69.7635 26.2782C69.9854 30.3715 70.4747 37.2071 71.3704 40.0262C71.5677 40.6444 69.9152 41.6755 69.9152 41.6755C68.2152 42.1601 66.4027 41.4227 65.5251 39.8891L62.6604 32.8154L43.1797 52.2958C42.1651 53.3105 40.5205 53.3105 39.5041 52.2958L39.3101 52.1016C38.2954 51.0869 38.2954 49.4424 39.3101 48.4277L39.9741 47.7638C38.9822 48.7557 37.3737 48.7557 36.3818 47.7638L36.1044 47.4865C35.1126 46.4946 35.1141 44.886 36.106 43.8941L36.6297 43.3704C35.6558 44.3443 34.0766 44.3443 33.1026 43.3704L32.7599 43.0279C31.786 42.054 31.786 40.4748 32.7599 39.5007L33.8268 38.4338C32.8919 39.3702 31.3732 39.3702 30.4383 38.4338L29.9587 37.9541C29.0222 37.0193 29.0222 35.5005 29.9587 34.5657L39.8808 24.6435L52.8197 11.703C53.7594 10.7633 55.0074 10.1955 56.3338 10.1026C56.6552 10.0798 56.9652 10.0015 57.2522 9.86928C57.541 9.73881 57.8054 9.556 58.0321 9.32928L64.3783 2.98303L77.0169 15.6216L71.8747 20.7623C71.6137 21.0251 71.3754 21.304 71.1601 21.5993Z" fill="#EFCDB1"/>
<path d="M53.0183 42.4568L43.1793 52.2959C42.1646 53.3106 40.52 53.3106 39.5036 52.2959L39.3096 52.1017C38.2949 51.087 38.2949 49.4425 39.3096 48.4278L39.9736 47.7639C38.9818 48.7557 37.3732 48.7557 36.3813 47.7639L36.1039 47.4865C35.1121 46.4947 35.1136 44.8861 36.1055 43.8942L36.6293 43.3704C35.6554 44.3443 34.0761 44.3443 33.1021 43.3704L32.7594 43.0279C31.7855 42.054 31.7855 40.4748 32.7594 39.5007L33.8263 38.4339C32.8914 39.3703 31.3727 39.3703 30.4379 38.4339L29.9582 37.9542C29.0218 37.0193 29.0218 35.5006 29.9582 34.5657L39.8804 24.6436C40.7597 24.8621 41.5672 25.3157 42.2247 25.9715L42.4205 26.1689C42.4775 26.2261 42.5641 26.314 42.6571 26.4217C43.4271 27.3059 43.8349 28.3925 43.8888 29.4904C44.4255 29.7351 44.9182 30.0761 45.3489 30.5051L45.6263 30.7825C45.6802 30.8379 45.7357 30.8967 45.7879 30.9554C46.5449 31.7875 46.9722 32.8039 47.0685 33.8431C47.6444 34.0878 48.173 34.4434 48.6282 34.8986L48.9838 35.2559C49.0132 35.2853 49.0425 35.3162 49.0702 35.3456C50.0768 36.4125 50.5238 37.7928 50.4129 39.137C50.7294 39.3343 51.0246 39.5676 51.2938 39.8368L51.7718 40.3148C52.3757 40.9184 52.7999 41.6542 53.0183 42.4568Z" fill="#D8AD8F"/>
<path d="M71.1587 21.5987L58.4604 8.90044L64.3781 2.98279L77.0165 15.6212L71.8747 20.7631C71.6134 21.0247 71.3742 21.3037 71.1587 21.5987Z" fill="#D8AD8F"/>
<path d="M32.2522 36.859L55.1138 13.9974C56.0536 13.0576 57.3014 12.4888 58.6275 12.397C58.9478 12.374 59.2583 12.2951 59.5466 12.1632C59.8349 12.0329 60.0985 11.8504 60.3253 11.6235L66.6722 5.27666L64.3785 2.98291L58.0316 9.32978C57.8047 9.55666 57.5411 9.73916 57.2528 9.86947C56.9647 10.0013 56.6542 10.0803 56.3338 10.1032C55.0077 10.1953 53.7597 10.764 52.82 11.7037L29.9583 34.5651C29.0224 35.501 29.0224 37.0187 29.9583 37.9546L30.4374 38.4337C30.7713 38.7676 31.1792 38.9817 31.6085 39.0773C31.436 38.3038 31.6502 37.4612 32.2522 36.859Z" fill="#D8AD8F"/>
<path d="M74.0038 18.7095L61.291 5.9967C60.7813 5.48701 60.7813 4.6606 61.291 4.15091L65.0592 0.382632C65.5689 -0.127056 66.3953 -0.127056 66.905 0.382632L79.6178 13.0954C80.1275 13.6051 80.1275 14.4315 79.6178 14.9412L75.8496 18.7095C75.3397 19.2192 74.5135 19.2192 74.0038 18.7095Z" fill="#FEC007"/>
<path d="M63.4122 8.11817L61.2905 5.99645C60.7808 5.48676 60.7808 4.66036 61.2905 4.15067L65.0588 0.382388C65.5684 -0.1273 66.3948 -0.1273 66.9045 0.382388L69.0263 2.50411L63.4122 8.11817Z" fill="#FE9700"/>
<path d="M39.974 48.9874C39.6609 48.9874 39.3478 48.8679 39.1088 48.6291C38.631 48.1511 38.631 47.3766 39.1088 46.8987L53.7963 32.2111C54.2742 31.7335 55.0489 31.7335 55.5267 32.2111C56.0045 32.6891 56.0045 33.4636 55.5267 33.9416L40.8392 48.6291C40.6001 48.8677 40.2871 48.9874 39.974 48.9874Z" fill="#D8AD8F"/>
<path d="M36.6293 44.5935C36.3162 44.5935 36.003 44.4739 35.7641 44.2352C35.2863 43.7572 35.2863 42.9827 35.7641 42.5047L51.2857 26.983C51.7635 26.5053 52.5382 26.5053 53.016 26.983C53.4938 27.461 53.4938 28.2355 53.016 28.7135L37.4944 44.2352C37.2555 44.4739 36.9424 44.5935 36.6293 44.5935Z" fill="#D8AD8F"/>
<path d="M33.827 39.6576C33.5139 39.6576 33.2008 39.538 32.9619 39.2993C32.4841 38.8213 32.4841 38.0468 32.9619 37.5688L46.0578 24.4729C46.5356 23.9951 47.3105 23.9954 47.7881 24.4729C48.2659 24.9508 48.2659 25.7254 47.7881 26.2033L34.6922 39.2993C34.4534 39.538 34.1402 39.6576 33.827 39.6576Z" fill="#D8AD8F"/>
<path d="M50.0415 45.4341L27.1803 68.2968C26.2406 69.2365 24.9926 69.8043 23.6662 69.8973C23.3448 69.9201 23.0348 69.9984 22.7478 70.1305C22.459 70.261 22.1946 70.4438 21.9679 70.6705L15.6218 77.0166L2.9834 64.378L8.12559 59.2374C8.38668 58.9748 8.6248 58.6959 8.84012 58.4005C9.82715 57.0596 10.3279 55.4069 10.2367 53.7216C10.0148 49.6283 9.52543 42.7927 8.6298 39.9737C8.43246 39.3554 10.085 38.3243 10.085 38.3243C11.785 37.8398 13.5975 38.5771 14.4751 40.1107L17.3398 47.1844L36.8203 27.7041C37.835 26.6894 39.4795 26.6894 40.4959 27.7041L40.69 27.8983C40.7307 27.9391 40.77 27.9799 40.8057 28.0223C41.7031 29.0435 41.6639 30.5982 40.69 31.5723L40.0259 32.2362C40.0993 32.1627 40.1761 32.0958 40.2543 32.0338C41.2511 31.2491 42.6998 31.3177 43.6182 32.2362L43.8956 32.5135C43.9217 32.5396 43.9462 32.5657 43.969 32.5918C44.8875 33.5885 44.8598 35.1401 43.894 36.1058L43.3703 36.6296C43.4356 36.5643 43.504 36.504 43.5742 36.4469C44.5531 35.6605 45.9887 35.721 46.8973 36.6296L47.24 36.9723C47.2547 36.9869 47.2693 37.0016 47.2823 37.0163C48.2139 37.9935 48.1992 39.5401 47.24 40.4994L46.1731 41.5663C46.2351 41.5043 46.2987 41.4473 46.3656 41.3918C47.3068 40.6348 48.6887 40.6919 49.5615 41.5663L50.0412 42.046C50.9778 42.9805 50.9778 44.4993 50.0415 45.4341Z" fill="#C19476"/>
<path d="M47.7478 43.1411L24.8861 66.0026C23.9462 66.9425 22.6984 67.5112 21.3723 67.6031C21.052 67.6261 20.7415 67.705 20.4533 67.8369C20.165 67.9672 19.9014 68.1497 19.6745 68.3765L13.3276 74.7234L15.6214 77.0172L21.9683 70.6703C22.1951 70.4434 22.4587 70.2609 22.747 70.1306C23.0351 69.9987 23.3456 69.9198 23.6661 69.8969C24.9922 69.8048 26.2401 69.2361 27.1798 68.2964L50.0415 45.4347C50.9775 44.4987 50.9775 42.9811 50.0415 42.0451L49.5625 41.5661C49.2286 41.2322 48.8206 41.0181 48.3914 40.9225C48.5639 41.6962 48.3498 42.5389 47.7478 43.1411Z" fill="#AA7F63"/>
<path d="M8.84072 58.4015L21.539 71.0998L15.6213 77.0171L2.98291 64.3787L8.12479 59.2368C8.38604 58.9754 8.6251 58.6965 8.84072 58.4015Z" fill="#AA7F63"/>
<path d="M5.99617 61.2906L18.709 74.0034C19.2187 74.5131 19.2187 75.3395 18.709 75.8492L14.9407 79.6175C14.431 80.1272 13.6046 80.1272 13.0949 79.6175L0.382266 66.9047C-0.127422 66.395 -0.127422 65.5686 0.382266 65.0589L4.15055 61.2906C4.66023 60.7809 5.48649 60.7809 5.99617 61.2906Z" fill="#B9F268"/>
<path d="M16.5877 71.8818L18.7094 74.0036C19.2191 74.5132 19.2191 75.3396 18.7094 75.8493L14.9411 79.6176C14.4314 80.1273 13.605 80.1273 13.0954 79.6176L10.9736 77.4957L16.5877 71.8818Z" fill="#8BCC3F"/>
<path d="M40.69 31.5722L40.026 32.2361C40.0994 32.1627 25.3514 46.9367 25.3514 46.9367C25.1133 47.1766 24.8 47.2957 24.4867 47.2957C24.1735 47.2957 23.8603 47.1766 23.6205 46.9367C23.1441 46.4588 23.1441 45.6838 23.6205 45.2058L40.8058 28.0222C41.703 29.0435 41.6639 30.5982 40.69 31.5722Z" fill="#AA7F63"/>
<path d="M43.894 36.1057L43.3703 36.6295C43.4356 36.5642 27.8588 52.1621 27.8588 52.1621C27.6207 52.4003 27.3074 52.5211 26.9942 52.5211C26.6809 52.5211 26.3678 52.4003 26.1295 52.1621C25.6515 51.6842 25.6515 50.9092 26.1295 50.4312L43.969 32.5917C44.8874 33.5885 44.8598 35.14 43.894 36.1057Z" fill="#AA7F63"/>
<path d="M47.24 40.4992L46.1731 41.5661C46.2351 41.504 33.0859 54.6712 33.0859 54.6712C32.8478 54.9111 32.5345 55.0301 32.2212 55.0301C31.9079 55.0301 31.5948 54.9111 31.3565 54.6712C30.8786 54.1948 30.8786 53.42 31.3565 52.942L47.2823 37.0162C48.2142 37.9934 48.1993 39.5401 47.24 40.4992Z" fill="#AA7F63"/>
</svg>
