<svg width="206" height="48" viewBox="0 0 206 48" fill="none" xmlns="http://www.w3.org/2000/svg">
<path d="M31.2808 45.0932C40.0166 42.0235 46.0497 33.6794 46.0497 24.1406C46.0497 11.8839 36.1764 1.95034 24 1.95034C11.8236 1.95034 1.95034 11.8839 1.95034 24.1406C1.95034 33.3319 7.55363 41.4378 15.8285 44.7578V26.8362H6.32903L16.2726 11.4379H31.2808V45.0932ZM9.91012 24.8859H17.7789V47.5017L16.4975 47.0779C6.7306 43.8475 0 34.6445 0 24.1406C0 10.8094 10.7438 0 24 0C37.2562 0 48 10.8094 48 24.1406C48 35.0002 40.8085 44.4384 30.5737 47.3641L29.3305 47.7195V13.3883H17.3348L9.91012 24.8859Z" fill="url(#paint0_linear)"/>
<path d="M203.868 17.5513C202.882 17.5093 201.91 17.8007 201.111 18.3779C200.312 18.9552 199.733 19.7844 199.469 20.7305H199.195V17.8231H193.73V23.6922C193.282 21.7713 192.15 20.0768 190.542 18.9227C188.934 17.7686 186.96 17.2332 184.985 17.4155C183.388 17.3117 181.794 17.6631 180.39 18.4283C178.986 19.1935 177.831 20.3409 177.06 21.7358V18.0676H173.508V13.7201H167.824V18.0676H165.091V19.9153C164.27 19.0549 163.27 18.383 162.161 17.9466C161.051 17.5101 159.86 17.3196 158.669 17.3883C156.797 17.1713 154.908 17.6272 153.345 18.6737C151.781 19.7202 150.645 21.2882 150.143 23.0944C149.979 19.4806 147.219 17.3883 142.464 17.3883C141.181 17.2866 139.892 17.4622 138.684 17.9031C137.477 18.344 136.379 19.0397 135.468 19.9425V18.0676H131.806V16.7905C131.806 15.4319 132.435 14.807 134.156 14.807C134.638 14.7687 135.123 14.7687 135.605 14.807V11.1659C134.699 11.0408 133.786 10.9863 132.872 11.0029C128.09 11.0029 126.286 12.7963 126.286 16.4373V18.0676H123.553V20.4044C122.728 19.3964 121.673 18.5992 120.475 18.0793C119.277 17.5594 117.971 17.3318 116.667 17.4155C114.792 17.2799 112.927 17.7889 111.385 18.8574C109.843 19.9259 108.717 21.4889 108.195 23.2846C108.268 22.4876 108.162 21.6845 107.886 20.9327C107.61 20.1809 107.171 19.499 106.599 18.9357C106.027 18.3724 105.337 17.9416 104.579 17.6741C103.82 17.4066 103.012 17.309 102.211 17.3883C101.1 17.323 99.9974 17.6084 99.0599 18.2038C98.1225 18.7992 97.3983 19.674 96.9911 20.7033H96.6905V17.8231H91.225V23.2575C90.7885 21.465 89.7229 19.8862 88.22 18.8053C86.7171 17.7244 84.8756 17.2123 83.0268 17.3611C81.871 17.2605 80.7068 17.4049 79.6113 17.7849C78.5158 18.1649 77.5139 18.7718 76.6718 19.5654C75.8297 20.359 75.1666 21.3214 74.7264 22.3888C74.2862 23.4561 74.0788 24.6043 74.1181 25.7573C73.6145 25.0813 72.9656 24.5257 72.2187 24.1308C71.4717 23.7359 70.6455 23.5118 69.8003 23.4748V23.1759C70.9934 23.0181 72.0884 22.4355 72.8823 21.5362C73.6763 20.6368 74.1153 19.4817 74.1181 18.285C74.1181 14.7255 71.3853 12.5517 66.7943 12.5517H56V35.4577H67.0949C68.6892 35.6543 70.3045 35.3281 71.6954 34.5287C73.0863 33.7293 74.1768 32.5004 74.8012 31.0286C75.4771 32.5992 76.6322 33.9189 78.1032 34.8013C79.5743 35.6838 81.287 36.0845 82.9995 35.9467C84.6748 36.1109 86.3604 35.7582 87.8271 34.9366C89.2938 34.1151 90.4707 32.8644 91.1977 31.3547V35.4577H96.8544V25.404C96.8544 23.3661 97.9475 22.0075 99.8058 22.0075C101.664 22.0075 102.539 23.2031 102.539 25.3497V35.4577H108.195V30.5124C108.764 32.2314 109.905 33.7064 111.43 34.6943C112.955 35.6822 114.773 36.1239 116.585 35.9467C121.203 35.9467 124.455 33.773 125.084 30.3222H119.973C119.683 30.8894 119.221 31.3518 118.652 31.6443C118.083 31.9367 117.437 32.0445 116.803 31.9525C116.323 31.9551 115.848 31.857 115.409 31.6647C114.969 31.4723 114.575 31.19 114.253 30.8362C113.931 30.4824 113.687 30.065 113.538 29.6112C113.389 29.1575 113.338 28.6775 113.388 28.2027V27.931H125.384V26.3551C125.405 24.9442 125.154 23.5424 124.646 22.2249H126.423V35.4577H131.97V22.2521H134.348C134.285 22.4932 134.24 22.7384 134.211 22.9857H139.294C139.649 22.0347 140.633 21.5456 142.027 21.5456C143.42 21.5456 144.486 22.2521 144.486 23.4477V24.8334L140.715 25.0508C136.124 25.3225 133.582 27.1974 133.582 30.4852C133.552 31.2328 133.682 31.9784 133.966 32.6717C134.249 33.365 134.678 33.99 135.224 34.5047C135.77 35.0195 136.421 35.4121 137.132 35.6561C137.844 35.9002 138.599 35.99 139.349 35.9196C140.329 35.9926 141.311 35.8015 142.191 35.3664C143.071 34.9312 143.816 34.2681 144.349 33.4469H144.65V35.4577H150.116V30.3493C150.639 32.1303 151.779 33.6695 153.335 34.6941C154.891 35.7186 156.761 36.1624 158.614 35.9467C159.61 36.0633 160.62 35.9759 161.581 35.69C162.542 35.4041 163.433 34.9257 164.201 34.2843C164.969 33.6429 165.597 32.852 166.046 31.9603C166.495 31.0687 166.756 30.0951 166.813 29.0994H161.62C161.597 29.464 161.499 29.8202 161.334 30.1464C161.168 30.4727 160.938 30.7625 160.658 30.9984C160.377 31.2343 160.051 31.4115 159.7 31.5194C159.349 31.6273 158.98 31.6637 158.614 31.6264C156.428 31.6264 155.28 29.9689 155.28 26.6539C155.28 23.339 156.401 21.7358 158.614 21.7358C158.995 21.6977 159.38 21.7397 159.744 21.8591C160.108 21.9785 160.442 22.1726 160.726 22.4288C161.009 22.6851 161.235 22.9977 161.39 23.3464C161.544 23.6951 161.622 24.0721 161.62 24.453H166.813C166.748 23.7211 166.592 23 166.348 22.3064H167.769V30.6754C167.769 34.1534 169.6 35.5663 174.3 35.5663C175.216 35.58 176.131 35.5072 177.033 35.349V31.7079C177.808 33.0944 178.966 34.2308 180.371 34.9821C181.775 35.7335 183.368 36.0683 184.958 35.9467C186.92 36.1165 188.878 35.5784 190.473 34.4309C192.069 33.2833 193.196 31.603 193.648 29.6972V35.4577H199.305V26.1649C199.275 25.6159 199.368 25.0672 199.577 24.5582C199.786 24.0492 200.106 23.5925 200.513 23.221C200.921 22.8495 201.406 22.5724 201.934 22.4095C202.463 22.2467 203.02 22.2022 203.568 22.2793C204.39 22.2719 205.209 22.3817 206 22.6053V17.8231C205.31 17.6151 204.589 17.5233 203.868 17.5513ZM61.7661 16.6818H65.2093C67.2042 16.6818 68.3793 17.66 68.3793 19.399C68.3793 21.138 67.1222 21.8717 64.9907 21.8717H61.8754L61.7661 16.6818ZM65.3186 31.409H61.8754V25.4856H65.4006C67.8328 25.4856 69.1991 26.5453 69.1991 28.4201C69.1991 30.295 67.8601 31.409 65.4279 31.409H65.3186ZM82.9448 21.4098C83.3631 21.4019 83.7785 21.4794 84.1655 21.6375C84.5524 21.7955 84.9027 22.0308 85.1947 22.3287C85.4866 22.6266 85.714 22.9809 85.8629 23.3696C86.0117 23.7584 86.0789 24.1733 86.0601 24.5889H79.6382C79.6453 24.1642 79.7365 23.7451 79.9065 23.3556C80.0766 22.966 80.3221 22.6135 80.6292 22.3183C80.9362 22.023 81.2988 21.7909 81.6961 21.635C82.0934 21.4791 82.5177 21.4026 82.9448 21.4098ZM86.3334 30.3222C86.0429 30.8894 85.5808 31.3518 85.0121 31.6443C84.4435 31.9367 83.7969 32.0445 83.1634 31.9525C82.672 31.9747 82.1815 31.8912 81.7255 31.7076C81.2695 31.5239 80.8588 31.2445 80.5215 30.8885C80.1841 30.5324 79.9281 30.1081 79.771 29.6446C79.6138 29.181 79.5592 28.6892 79.6109 28.2027V27.931H91.1977V30.3222H86.3334ZM113.388 24.5889C113.38 24.1551 113.461 23.7243 113.624 23.322C113.788 22.9198 114.031 22.5544 114.34 22.2477C114.648 21.9409 115.016 21.699 115.42 21.5364C115.825 21.3737 116.258 21.2937 116.694 21.3011C117.12 21.2959 117.542 21.3792 117.934 21.5455C118.325 21.7118 118.678 21.9575 118.968 22.267C119.259 22.5764 119.481 22.9428 119.622 23.3426C119.762 23.7424 119.816 24.1669 119.782 24.5889H113.388ZM144.595 29.1809C144.568 29.5692 144.463 29.9481 144.287 30.2956C144.11 30.6431 143.866 30.9523 143.569 31.2052C143.271 31.458 142.926 31.6495 142.553 31.7685C142.181 31.8875 141.788 31.9315 141.398 31.8981C139.977 31.8981 139.021 31.1917 139.021 30.0776C139.021 28.9636 139.895 28.3658 141.589 28.2299L144.595 28.0397V29.1809ZM175.639 31.4362C174.164 31.4362 173.48 30.7841 173.48 29.4527V22.2521H176.814C176.205 23.6493 175.898 25.1583 175.913 26.6811C175.888 28.2922 176.224 29.8886 176.896 31.3547C176.479 31.3973 176.059 31.4155 175.639 31.409V31.4362ZM184.985 31.6808C182.908 31.6808 181.706 29.8602 181.706 26.7083C181.706 23.5563 182.936 21.7358 184.985 21.7358C187.035 21.7358 188.265 23.6107 188.265 26.7083C188.265 29.8059 187.171 31.6536 184.985 31.6536V31.6808Z" fill="#333333"/>
<defs>
<linearGradient id="paint0_linear" x1="3.94911" y1="38.6682" x2="46.0812" y2="13.6215" gradientUnits="userSpaceOnUse">
<stop stop-color="#67E8E0"/>
<stop offset="1" stop-color="#A994FF"/>
</linearGradient>
</defs>
</svg>
